# xmcd CD database file
#
# Track frame offsets:
#	150
#	23538
#	54464
#	83918
#	115108
#	147224
#	164051
#	194605
#	222742
#	244335
#
# Disc length: 3648 seconds
#
# Revision: 0
# Processed by: cddbd v1.5.2PL0 Copyright (c) Steve Scherf et al.
# Submitted via: CDex 1.51
#
DISCID=930e3e0a
DTITLE=Robert Vaughn - Back on Track
DYEAR=2005
DGENRE=Jazz
TTITLE0=Back on Track
TTITLE1=Where Do We Go from Here
TTITLE2=Forever My Everything
TTITLE3=Down In It
TTITLE4=We'll Get By
TTITLE5=Hold On to Your Heart
TTITLE6=Hilo Rising
TTITLE7=The One
TTITLE8=Goin Home
TTITLE9=What Tomorrow Will Bring
EXTD=YEAR: 2005
EXTT0=
EXTT1=
EXTT2=
EXTT3=
EXTT4=
EXTT5=
EXTT6=
EXTT7=
EXTT8=
EXTT9=
PLAYORDER=
